<svg width="800" height="600" viewBox="0 0 800 600" fill="none" xmlns="http://www.w3.org/2000/svg">
  <rect width="800" height="600" rx="40" fill="#F7ECDD"/>
  <circle cx="166" cy="120" r="66" fill="#E5C98E"/>
  <path d="M159 474C159 396.68 221.68 334 299 334H510C587.32 334 650 396.68 650 474V488H159V474Z" fill="#4A1942"/>
  <path d="M258 185C258 132.533 300.533 90 353 90H446C498.467 90 541 132.533 541 185V271C541 323.467 498.467 366 446 366H353C300.533 366 258 323.467 258 271V185Z" fill="#34142E"/>
  <path d="M283 237C283 183.428 326.428 140 380 140H421C474.572 140 518 183.428 518 237V278C518 331.572 474.572 375 421 375H380C326.428 375 283 331.572 283 278V237Z" fill="#F3C2A2"/>
  <path d="M281 184C329.667 152.667 384.333 137 445 137C484.333 137 516 146.333 540 165C511.333 141.667 472.333 117.667 423 93C371.667 105 324.333 135.333 281 184Z" fill="#221019"/>
  <path d="M573 296C620.379 296 658.794 257.585 658.794 210.206C658.794 162.826 620.379 124.412 573 124.412C525.62 124.412 487.206 162.826 487.206 210.206C487.206 257.585 525.62 296 573 296Z" fill="#C9974D"/>
  <rect x="538" y="183" width="138" height="63" rx="31.5" fill="#2D0E28"/>
  <path d="M640 215H709" stroke="#2D0E28" stroke-width="20" stroke-linecap="round"/>
  <path d="M694 182L729 161" stroke="#E5C98E" stroke-width="12" stroke-linecap="round"/>
  <path d="M707 214H746" stroke="#E5C98E" stroke-width="12" stroke-linecap="round"/>
  <path d="M694 245L729 266" stroke="#E5C98E" stroke-width="12" stroke-linecap="round"/>
</svg>
